<?xml version="1.0" encoding="UTF-8" standalone="no"?>
<!-- Created with Inkscape (http://www.inkscape.org/) -->

<svg
   version="1.1"
   id="svg229"
   width="32"
   height="32"
   viewBox="0 0 32 32"
   sodipodi:docname="feed.svg"
   inkscape:version="1.2-alpha1 (dc2c020, 2022-03-06)"
   xmlns:inkscape="http://www.inkscape.org/namespaces/inkscape"
   xmlns:sodipodi="http://sodipodi.sourceforge.net/DTD/sodipodi-0.dtd"
   xmlns="http://www.w3.org/2000/svg"
   xmlns:svg="http://www.w3.org/2000/svg">
  <sodipodi:namedview
     id="namedview1492"
     pagecolor="#505050"
     bordercolor="#eeeeee"
     borderopacity="1"
     inkscape:pageshadow="0"
     inkscape:pageopacity="0"
     inkscape:pagecheckerboard="0"
     inkscape:deskcolor="#505050"
     showgrid="false"
     inkscape:zoom="7.9402199"
     inkscape:cx="3.5893212"
     inkscape:cy="19.457899"
     inkscape:current-layer="g235" />
  <defs
     id="defs233" />
  <g
     id="g235"
     transform="matrix(0.04692695,0,0,0.04692695,-0.01330049,-0.01164457)">
    <path
       style="stroke-width:1.33119"
       d="M 301.24211,679.97993 C 237.23952,672.20337 177.40607,647.01209 126.85583,606.55923 112.36551,594.96334 87.433506,570.0367 75.789269,555.50365 51.251562,524.87857 29.759626,485.61687 17.85791,449.67379 -18.899969,338.66613 2.7514206,218.01694 75.789269,126.85948 87.416306,112.34788 112.34424,87.419943 126.85583,75.792852 218.19567,2.6088953 337.98352,-18.897204 449.67014,17.836456 c 35.64042,11.7221 75.08758,33.324856 105.82985,57.956396 14.51159,11.627091 39.43952,36.555028 51.06663,51.066628 85.06518,106.16862 99.63701,251.35985 37.27506,371.40286 -16.32274,31.42036 -36.08614,58.30152 -61.68381,83.89919 -54.96136,54.96134 -124.89055,88.79701 -202.21295,97.8419 -20.163,2.35858 -59.19369,2.34692 -78.70281,-0.0235 z m 41.78203,-186.84147 c 8.70932,-4.98052 10.97718,-18.77041 6.87282,-41.79037 -8.04856,-45.14148 -37.61946,-84.61367 -78.92082,-105.34591 -24.98979,-12.54427 -61.6774,-19.09876 -73.54055,-13.13851 -9.57587,4.8111 -13.30705,16.34863 -8.53756,26.39963 3.40123,7.16753 8.76808,9.59113 24.55916,11.09052 42.73464,4.05772 76.37429,28.6574 91.77136,67.10975 4.02432,10.05026 7.99431,29.15674 7.99431,38.47448 0,16.24074 15.667,25.28328 29.80128,17.20041 z m 89.06656,0.23975 c 2.0458,-1.04559 4.93617,-3.81888 6.42309,-6.16284 2.49279,-3.92967 2.6488,-5.76578 2.00229,-23.56403 -2.51917,-69.35144 -39.43886,-136.57547 -98.17204,-178.75336 -14.79617,-10.62552 -44.82804,-25.91641 -62.05689,-31.59663 -21.61964,-7.12782 -49.86053,-11.93036 -70.23176,-11.94337 -6.96291,-0.004 -10.41501,0.66269 -13.65689,2.63931 -8.87927,5.41376 -12.05924,16.4692 -7.50047,26.07608 3.61891,7.62626 8.2564,9.38945 29.14452,11.08078 37.50735,3.037 67.22897,13.0706 97.32227,32.85467 15.67901,10.30773 42.69925,37.21879 52.92149,52.70763 19.97633,30.26832 31.12447,63.04886 33.41868,98.26608 1.20949,18.56596 1.66736,20.41353 6.21025,25.06013 6.70168,6.85461 15.0393,8.005 24.17546,3.33555 z m 86.10869,0.55776 c 10.36579,-5.29666 11.39113,-7.88579 11.02457,-27.83836 -0.81046,-44.1173 -12.3305,-90.3512 -32.94946,-132.23762 -43.34379,-88.05074 -123.96082,-151.69057 -218.99387,-172.8757 -33.10043,-7.37888 -72.25151,-9.82508 -81.12068,-5.0685 -8.8146,4.7273 -12.11789,17.72128 -6.74524,26.53318 4.62555,7.58649 8.81963,9.13501 27.27524,10.07037 31.17564,1.58007 57.77193,6.78793 85.89065,16.81845 83.92263,29.93688 151.7401,102.13464 176.36271,187.75388 6.97657,24.25934 11.32823,52.38079 11.32823,73.2059 0,13.97453 4.73997,22.44317 14.13632,25.25657 5.94157,1.77897 7.50132,1.59597 13.79153,-1.61817 z m -276.48032,-8.6556 c 28.91488,-15.73747 17.26463,-60.73286 -15.72501,-60.73286 -36.56827,0 -45.47358,51.04648 -11.0364,63.26219 8.90172,3.15767 17.86986,2.31007 26.76141,-2.52933 z"
       id="path2615" />
  </g>
</svg>
