<?xml version="1.0" encoding="UTF-8" standalone="no"?>
<!-- Created with Inkscape (http://www.inkscape.org/) -->

<svg
   version="1.1"
   id="svg229"
   width="32"
   height="32"
   viewBox="0 0 32 32"
   sodipodi:docname="git.svg"
   inkscape:version="1.2-alpha1 (dc2c020, 2022-03-06)"
   xmlns:inkscape="http://www.inkscape.org/namespaces/inkscape"
   xmlns:sodipodi="http://sodipodi.sourceforge.net/DTD/sodipodi-0.dtd"
   xmlns="http://www.w3.org/2000/svg"
   xmlns:svg="http://www.w3.org/2000/svg">
  <sodipodi:namedview
     id="namedview1492"
     pagecolor="#505050"
     bordercolor="#eeeeee"
     borderopacity="1"
     inkscape:pageshadow="0"
     inkscape:pageopacity="0"
     inkscape:pagecheckerboard="0"
     inkscape:deskcolor="#505050"
     showgrid="false"
     inkscape:zoom="7.9402198"
     inkscape:cx="18.135518"
     inkscape:cy="14.042432"
     inkscape:current-layer="g235" />
  <defs
     id="defs233" />
  <g
     id="g235"
     transform="matrix(0.04692695,0,0,0.04692695,-0.01330049,-0.01164457)">
    <path
       style="fill-opacity:1;stroke-width:1.33333"
       d="M 310.9096,680.84092 C 283.66166,678.25537 249.05204,670.5336 224.71853,661.61077 207.80383,655.40833 174.82981,639.24119 159.98982,629.87433 131.14111,611.66527 97.452866,581.74944 76.543517,555.77234 54.391354,528.25122 32.669326,490.00864 20.896884,457.80407 11.570883,432.29192 4.3572293,399.31646 1.604389,369.613 -6.2588251,284.76802 21.299338,194.67167 75.829877,126.94631 89.404652,110.08684 118.47947,81.795078 134.93475,69.433276 161.39493,49.555431 194.59572,31.398349 224.90959,20.227189 242.99232,13.563402 274.5547,5.7763733 295.57626,2.792392 c 25.47779,-3.61653473 70.72537,-3.33935989 96.00001,0.588071 43.37339,6.739798 80.13126,19.416947 118.00001,40.696153 29.28346,16.454959 52.70622,34.786907 78.00001,61.047124 26.75781,27.78018 44.59762,53.46362 61.41126,88.41199 15.65003,32.5297 25.51123,64.98278 30.81466,101.4106 3.20216,21.99483 3.18673,69.73126 -0.0297,92.00001 -8.42963,58.36123 -31.40245,113.70815 -66.67622,160.6387 -11.91486,15.85229 -40.1098,45.00031 -56.05852,57.95344 -68.4873,55.62368 -159.634,83.50983 -246.12814,75.30244 z M 282.90959,508.23857 c 11.07443,-3.40732 18.7377,-7.77828 24.86057,-14.17997 10.01782,-10.474 13.87292,-21.32341 13.93938,-39.22965 0.0361,-9.74696 -0.48821,-12.58102 -3.44676,-18.62807 -6.0547,-12.37536 -14.48632,-17.45811 -41.94959,-25.28804 -25.09352,-7.15432 -29.4036,-10.20475 -29.4036,-20.81023 0,-9.05623 3.45271,-12.49746 15.99051,-15.93739 5.49479,-1.50759 13.42871,-4.57359 17.63095,-6.81336 23.14507,-12.33619 36.07239,-42.36655 29.53555,-68.61152 -0.62772,-2.52025 0.19794,-3.13821 6.73041,-5.03725 l 7.44592,-2.16459 v -18.4072 c 0,-10.12396 -0.29677,-18.70396 -0.65949,-19.06668 -0.36272,-0.36272 -4.67188,0.6908 -9.57592,2.34116 -4.90403,1.65036 -13.83092,3.69827 -19.83755,4.55091 -10.16454,1.44285 -11.29952,1.3572 -16.38342,-1.23642 -44.65712,-22.78236 -98.30185,15.40208 -89.65027,63.81329 2.96253,16.57739 13.15788,33.81823 23.77363,40.20243 2.74982,1.65372 5.16733,3.12023 5.37224,3.25889 0.2049,0.13867 -1.33327,2.07822 -3.41816,4.31011 -9.99002,10.69434 -8.91902,34.92053 1.9383,43.8447 l 3.49171,2.87001 -7.85888,3.71475 c -10.42335,4.92693 -20.73346,15.31135 -23.62382,23.79407 -1.28629,3.77509 -2.23505,10.68235 -2.23505,16.272 0,26.70647 17.66175,43.54758 51.33334,48.94815 8.61197,1.38127 38.68606,-0.2598 46,-2.5101 z m -45.14243,-31.87723 c -11.085,-3.5959 -16.25579,-11.93748 -13.57381,-21.89754 2.5981,-9.64867 12.89073,-14.85079 29.38291,-14.85079 17.96833,0 29.08243,6.39494 30.20411,17.37914 0.77334,7.57312 -2.52179,14.22491 -8.86087,17.88713 -6.0126,3.47362 -28.27527,4.36171 -37.15234,1.48206 z m 1.21968,-138.32854 c -8.13592,-4.2398 -11.33824,-10.76031 -11.33108,-23.0722 0.007,-11.10876 3.80865,-19.35724 11.25383,-24.414 3.90884,-2.65488 5.91459,-3.08228 12.35125,-2.6319 9.17742,0.64218 13.63315,3.52352 18.27295,11.8164 6.50716,11.63053 3.63386,30.95722 -5.60628,37.70947 -5.70664,4.17015 -17.53583,4.45105 -24.94067,0.59223 z m 250.25611,81.5364 8.33333,-2.86767 v -18.68691 c 0,-17.27755 -0.17598,-18.61379 -2.33333,-17.71733 -12.83606,5.33388 -22.33504,5.93804 -27.64843,1.75852 -6.9592,-5.47411 -7.35157,-8.23136 -7.35157,-51.66012 v -39.96963 l 18.66666,0.79834 18.66667,0.79834 v -18.20487 -18.20488 h -18.66667 -18.66666 l -0.0881,-4.33333 c -0.0484,-2.38333 -0.012,-9.58334 0.0803,-16 l 0.16832,-11.66667 -21.08026,-0.001 -21.08025,-0.001 0.445,16.00182 0.445,16.00181 h -8.77834 -8.77833 v 17.84647 17.84646 l 8.54989,-0.6863 8.54991,-0.6863 0.53873,47.83984 c 0.50151,44.53329 0.73668,48.43929 3.40259,56.51257 5.12792,15.52907 14.86792,25.09636 28.48791,27.98273 9.15442,1.94004 28.66986,0.55879 38.13765,-2.69926 z m -106.01985,-81.99061 -0.35316,-83.36817 -20.09,0.36795 -20.08999,0.36796 -0.22351,83.00011 -0.22351,83.00013 20.66667,9e-5 20.66667,1.1e-4 z M 368.61271,224.86615 c 10.81013,-3.002 19.55619,-14.87294 19.58792,-26.5865 0.0177,-6.5503 -4.60077,-17.87244 -8.81751,-21.61581 -3.7873,-3.36215 -11.77025,-6.38832 -16.76402,-6.35491 -10.59181,0.0709 -21.90298,9.42293 -25.06761,20.72586 -3.92357,14.01365 5.08355,29.51311 19.71016,33.91725 5.01365,1.50963 5.62223,1.50502 11.35106,-0.0859 z"
       id="path901" />
  </g>
</svg>
