<?xml version="1.0" encoding="UTF-8" standalone="no"?>
<!-- Created with Inkscape (http://www.inkscape.org/) -->

<svg
   version="1.1"
   id="svg229"
   width="32"
   height="32"
   viewBox="0 0 32 32"
   sodipodi:docname="teste.svg"
   inkscape:version="1.2-alpha1 (dc2c020, 2022-03-06)"
   xmlns:inkscape="http://www.inkscape.org/namespaces/inkscape"
   xmlns:sodipodi="http://sodipodi.sourceforge.net/DTD/sodipodi-0.dtd"
   xmlns="http://www.w3.org/2000/svg"
   xmlns:svg="http://www.w3.org/2000/svg">
  <sodipodi:namedview
     id="namedview1492"
     pagecolor="#505050"
     bordercolor="#eeeeee"
     borderopacity="1"
     inkscape:pageshadow="0"
     inkscape:pageopacity="0"
     inkscape:pagecheckerboard="0"
     inkscape:deskcolor="#505050"
     showgrid="false"
     inkscape:zoom="11.229167"
     inkscape:cx="13.402597"
     inkscape:cy="11.176252"
     inkscape:current-layer="g235" />
  <defs
     id="defs233" />
  <g
     id="g235"
     transform="matrix(0.04692695,0,0,0.04692695,-0.01330049,-0.01164457)">
    <path
       style="stroke-width:1.33318"
       d="M 310.23598,681.95637 C 296.74861,680.69992 269.9922,675.75352 253.98478,671.55732 130.10161,639.08259 32.909263,536.21885 6.8829427,410.03647 c -8.7993507,-42.66162 -8.7993507,-94.19879 0,-136.86042 C 34.367068,139.92577 139.8853,34.40754 273.13561,6.9233891 324.82975,-3.7390274 383.19307,-1.558446 434.84927,12.965286 c 41.76739,11.743393 86.84633,35.317121 122.38399,63.999881 51.93796,41.919613 93.66653,104.803133 112.16908,169.035023 10.02758,34.81089 12.79202,55.47202 12.79202,95.60609 0,33.25601 -0.97981,44.16202 -6.22836,69.32558 -21.44101,102.79661 -90.11097,191.14326 -184.41697,237.25975 -37.43251,18.30482 -73.04566,28.54353 -115.98702,33.34601 -11.22833,1.25575 -53.43697,1.5263 -65.32603,0.41875 z M 492.20612,465.66143 c 26.47098,-7.74889 43.03208,-23.8342 47.83713,-46.46281 3.33991,-15.72866 4.4325,-14.9327 -20.49737,-14.9327 -21.50365,0 -21.99753,0.0634 -21.99753,2.81816 0,4.50503 -5.05427,12.20793 -10.61304,16.17471 -11.46973,8.18484 -35.96892,10.02585 -50.15603,3.76898 -13.58602,-5.99173 -23.22153,-20.15939 -23.22153,-34.14392 0,-5.94933 0,-5.94933 64.57775,-5.94933 64.57773,0 64.57773,0 65.4825,-6.0335 1.23318,-8.22329 -1.54853,-33.29337 -4.91417,-44.28871 -9.08812,-29.69051 -27.33825,-47.79126 -55.62915,-55.17382 -14.32779,-3.73886 -40.78528,-3.7203 -55.19442,0.0387 -16.85106,4.39603 -26.94372,10.11584 -39.05466,22.13337 -12.28408,12.18933 -18.36916,22.63975 -24.09383,41.37834 -3.26369,10.68307 -3.65785,14.06765 -3.72037,31.94679 -0.0537,15.36273 0.48818,22.00626 2.33797,28.66344 9.28502,33.41579 31.41403,54.24796 65.74504,61.89218 13.94878,3.10586 49.80185,2.06634 63.11171,-1.82987 z M 413.05288,349.95771 c 2.90438,-12.04452 13.52934,-26.03086 23.8356,-31.37637 6.75518,-3.50373 24.68076,-4.7271 33.41835,-2.28071 12.46311,3.48946 23.32123,17.51395 24.77612,32.00119 0.46563,4.63651 0.46563,4.63651 -41.22656,4.98886 -41.69217,0.35235 -41.69217,0.35235 -40.80351,-3.33297 z M 291.5714,462.26031 c 13.43524,-2.81108 29.99256,-11.3868 38.59646,-19.99073 13.49111,-13.49109 20.40655,-34.78417 18.83742,-58.00143 -2.16504,-32.034 -15.55159,-51.04806 -38.25555,-54.33761 -7.17967,-1.04025 -7.17967,-1.04025 1.40229,-4.17717 18.11198,-6.62034 28.08061,-22.55339 28.08061,-44.88177 0,-26.38574 -11.09136,-46.68882 -31.40133,-57.48118 -15.69698,-8.34114 -16.79656,-8.43666 -97.11007,-8.43666 -72.7994,0 -72.7994,0 -72.7994,124.65274 0,124.65272 0,124.65272 71.65863,124.62956 57.72177,-0.0187 73.47369,-0.40289 80.99094,-1.97575 z M 196.24874,386.9891 c 0,-33.38417 0,-33.38417 39.37175,-33.38417 44.304,0 45.10775,0.14084 52.9274,9.27638 5.9563,6.9586 8.23512,15.7427 7.40022,28.52536 -0.78149,11.96479 -4.49581,19.57527 -11.96853,24.52313 -5.53938,3.66775 -5.53938,3.66775 -46.63512,4.05561 -41.09572,0.38786 -41.09572,0.38786 -41.09572,-32.99631 z m 0.30677,-100.37666 c 0.35982,-28.33016 0.35982,-28.33016 36.3558,-28.70052 42.64502,-0.43877 45.06319,0.0426 51.00514,10.15035 3.23359,5.50066 3.64862,7.53246 3.59656,17.60759 -0.0482,9.33435 -0.64962,12.58184 -3.33296,17.998 -5.48968,11.08059 -6.3359,11.27024 -50.29537,11.27265 -37.68897,0.004 -37.68897,0.004 -37.32917,-28.32807 z m 308.99195,-42.32862 c 0,-14.66503 0,-14.66503 -51.32758,-14.66503 -51.32759,0 -51.32759,0 -51.32759,14.66503 0,14.66502 0,14.66502 51.32759,14.66502 51.32758,0 51.32758,0 51.32758,-14.66502 z"
       id="path2895" />
  </g>
</svg>
